<svg width="45" height="46" viewBox="0 0 45 46" fill="none" xmlns="http://www.w3.org/2000/svg">
<path d="M22.6983 27.5005C15.2419 27.5005 9.17566 33.5667 9.17566 41.0231C9.17566 41.3866 9.46983 41.6807 9.83327 41.6807H35.5633C35.9268 41.6807 36.2209 41.3866 36.2209 41.0231C36.2209 33.5667 30.1547 27.5005 22.6983 27.5005ZM10.5084 40.3655C10.8512 33.9389 16.188 28.8157 22.6983 28.8157C29.2086 28.8157 34.5454 33.9389 34.8882 40.3655H10.5084Z" fill="#20A0CD"/>
<path d="M22.4751 26.2981C26.7881 26.2981 30.2976 22.7878 30.2976 18.4726C30.2976 16.9482 29.8579 15.4778 29.0306 14.2086V4.50844C29.0306 4.145 28.7364 3.85083 28.373 3.85083H16.5781C16.2147 3.85083 15.9205 4.145 15.9205 4.50844V14.2042C15.091 15.476 14.6513 16.9495 14.6513 18.4726C14.6509 22.7878 18.1607 26.2981 22.4751 26.2981ZM17.2353 5.16649H27.7149V13.9114H17.2353V5.16649ZM16.8363 15.2262H28.1161C28.6838 16.2104 28.9824 17.3235 28.9824 18.4726C28.9819 22.0627 26.063 24.9829 22.4751 24.9829C18.8863 24.9829 15.9665 22.0622 15.9665 18.4726C15.9665 17.3252 16.2673 16.2117 16.8363 15.2262Z" fill="#20A0CD"/>
<path d="M24.7668 8.95385H23.1328V7.31728C23.1328 6.95384 22.8387 6.65967 22.4752 6.65967C22.1118 6.65967 21.8176 6.95384 21.8176 7.31728V8.95385H20.1832C19.8198 8.95385 19.5256 9.24802 19.5256 9.61146C19.5256 9.9749 19.8198 10.2691 20.1832 10.2691H21.8176V11.9034C21.8176 12.2669 22.1118 12.5611 22.4752 12.5611C22.8387 12.5611 23.1328 12.2669 23.1328 11.9034V10.2691H24.7668C25.1302 10.2691 25.4244 9.9749 25.4244 9.61146C25.4244 9.24802 25.1298 8.95385 24.7668 8.95385Z" fill="#20A0CD"/>
</svg>
