<svg width="60" height="61" viewBox="0 0 60 61" fill="white" xmlns="http://www.w3.org/2000/svg">
<path d="M30.6571 10.3995C30.4819 10.4438 30.296 10.4612 30.1176 10.4316C27.5727 9.77852 25.2111 8.55144 23.2137 6.84439C23.0328 6.65138 22.9322 6.39661 22.9326 6.13204C22.9331 5.86746 23.0344 5.613 23.2159 5.42055C23.3975 5.22809 23.6456 5.11214 23.9097 5.09634C24.1738 5.08054 24.434 5.16607 24.6372 5.3355C26.4061 6.78524 28.4711 7.82989 30.687 8.39599C30.8184 8.4306 30.9416 8.491 31.0495 8.57367C31.1573 8.65633 31.2476 8.75961 31.3152 8.8775C31.3827 8.99539 31.4262 9.12554 31.443 9.26037C31.4598 9.3952 31.4496 9.53203 31.413 9.66289C31.3504 9.88586 31.2161 10.082 31.0309 10.2209C30.9186 10.3051 30.7914 10.3655 30.6571 10.3995Z" fill="#38bcea"/>
<path d="M39.7408 60.7932C39.5361 60.8355 39.3185 60.8514 39.1139 60.8089C38.9023 60.7468 38.7168 60.6172 38.5858 60.4398C38.4547 60.2625 38.3852 60.0471 38.3879 59.8267C38.3879 59.7412 38.1886 51.1861 29.847 40.9655C29.6734 40.7541 29.5908 40.4823 29.6175 40.21C29.6442 39.9377 29.7779 39.6872 29.9894 39.5135C30.2008 39.3399 30.4725 39.2573 30.7448 39.284C31.0171 39.3107 31.2676 39.4445 31.4413 39.6559C33.0566 41.514 34.489 43.5119 35.724 45.6214C37.9844 49.4824 43.9367 50.0742 44.6605 45.6591C45.4617 40.7715 44.4839 37.2106 43.7545 35.357C43.2659 34.1335 43.1088 32.8029 43.2989 31.4993C43.484 30.2894 43.6548 29.0367 43.7972 27.7983C43.8118 27.6617 43.8534 27.5295 43.9195 27.4091C43.9856 27.2888 44.0749 27.1827 44.1822 27.097C44.2895 27.0114 44.4127 26.9479 44.5448 26.9101C44.6768 26.8724 44.815 26.8612 44.9514 26.8772C45.0877 26.8932 45.2196 26.936 45.3393 27.0033C45.459 27.0705 45.5642 27.1608 45.6488 27.269C45.7334 27.3771 45.7957 27.501 45.8322 27.6334C45.8687 27.7657 45.8785 27.904 45.8612 28.0403C45.7189 29.3072 45.548 30.5741 45.3488 31.8125C45.2061 32.7516 45.3242 33.7118 45.6904 34.5883C47.1139 38.1185 49.4057 47.6986 40.3381 60.4245C40.231 60.5602 40.0913 60.6666 39.932 60.7338C39.8701 60.7599 39.8061 60.7798 39.7408 60.7932Z" fill="#38bcea"/>
<path d="M8.42362 60.8089C8.25843 60.8084 8.09579 60.7681 7.94955 60.6912C7.80332 60.6144 7.67782 60.5034 7.58376 60.3676C-1.49807 47.6416 0.793744 38.0616 2.21723 34.5313C2.57163 33.6517 2.68467 32.6935 2.54463 31.7556C1.85394 27.3031 1.46869 22.8086 1.3916 18.3036C1.40584 9.32144 7.91116 2.0332 15.9396 2.0332C17.5578 2.04125 19.1503 2.34223 20.6435 2.91133C22.725 3.70465 25.1257 3.70465 27.2072 2.91133C28.7004 2.34223 30.2929 2.04125 31.9111 2.0332C35.3069 2.06512 38.5694 3.35897 41.0641 5.66309C41.165 5.75655 41.2466 5.86899 41.3041 5.99397C41.3616 6.11895 41.3939 6.25404 41.3992 6.39151C41.4045 6.52898 41.3826 6.66614 41.3349 6.79517C41.2872 6.9242 41.2145 7.04257 41.121 7.14351C41.0276 7.24445 40.9151 7.326 40.7902 7.38349C40.6652 7.44099 40.5301 7.4733 40.3926 7.47859C40.2551 7.48387 40.118 7.46203 39.989 7.41431C39.8599 7.36659 39.7416 7.29392 39.6406 7.20045C37.6198 5.28152 34.9578 4.18238 32.1719 4.11661C29.3859 4.05084 26.675 5.02315 24.5659 6.84458C24.3822 7.00383 24.1472 7.0915 23.904 7.0915C23.6608 7.0915 23.4258 7.00383 23.2421 6.84458C21.2016 5.09951 18.6102 4.13151 15.9254 4.11149C9.04995 4.11149 3.46989 10.4887 3.46989 18.3463C3.54256 22.7465 3.9183 27.1365 4.59444 31.4851C4.79153 32.7885 4.63419 34.121 4.13893 35.3427C3.10362 37.9433 1.54539 44.183 5.47951 52.7681C6.18707 54.3121 8.42423 53.9771 9.00724 52.3818C9.04918 52.2477 9.11791 52.1234 9.20926 52.0166C9.30062 51.9097 9.4127 51.8225 9.53872 51.7603C9.66475 51.698 9.80209 51.6619 9.94246 51.6543C10.0828 51.6466 10.2233 51.6675 10.3553 51.7157C10.4874 51.7639 10.6083 51.8384 10.7107 51.9346C10.8131 52.0309 10.895 52.147 10.9513 52.2758C11.0075 52.4046 11.0371 52.5435 11.0382 52.684C11.0392 52.8246 11.0118 52.9639 10.9574 53.0936C10.1189 55.2444 9.61023 57.5096 9.44853 59.8124C9.4467 60.0318 9.37548 60.245 9.24507 60.4214C9.11466 60.5979 8.93175 60.7285 8.72255 60.7946C8.62465 60.8179 8.52328 60.8227 8.42362 60.8089Z" fill="#38bcea"/>
<path d="M23.9254 60.8088C23.762 60.8083 23.6011 60.7693 23.4556 60.6949C20.8942 59.0942 18.7905 56.858 17.3489 54.2038C17.2115 53.9668 17.1718 53.6857 17.2382 53.4199C17.3046 53.1542 17.472 52.9248 17.7047 52.7803C17.8211 52.7085 17.9507 52.6607 18.0858 52.6398C18.2209 52.6188 18.3588 52.6251 18.4915 52.6583C18.6241 52.6914 18.7488 52.7508 18.8582 52.8329C18.9675 52.915 19.0593 53.0181 19.1282 53.1362C19.7293 54.1917 20.4369 55.1789 21.2379 56.0832C22.6802 57.7114 25.1636 57.7023 26.579 56.0507C28.5099 53.7976 30.9058 49.9614 32.3809 43.7839C32.455 43.5286 32.6242 43.3115 32.8536 43.1772C33.0829 43.0428 33.3551 43.0015 33.614 43.0616C33.8729 43.1218 34.0989 43.2789 34.2455 43.5006C34.3921 43.7224 34.4482 43.9919 34.4022 44.2537C31.356 57.065 24.6798 60.5526 24.4378 60.6949C24.2782 60.7723 24.1027 60.8112 23.9254 60.8088Z" fill="#38bcea"/>
<path d="M-nan -nanL15.0287 51.9405C14.5927 51.9422 14.1606 51.8575 13.7575 51.6914C13.3544 51.5252 12.9881 51.2809 12.6799 50.9725L8.58029 46.9013C7.96051 46.2796 7.61249 45.4376 7.61249 44.5597C7.61249 43.6818 7.96051 42.8398 8.58029 42.2181L13.7475 37.0508C14.3717 36.4302 15.2161 36.0818 16.0963 36.0818C16.9765 36.0818 17.8209 36.4302 18.445 37.0508L22.502 41.122C23.1226 41.7461 23.471 42.5905 23.471 43.4707C23.471 44.3509 23.1226 45.1954 22.502 45.8195L17.349 50.9725C16.7334 51.5884 15.8995 51.9363 15.0287 51.9405L-nan -nanZM16.1248 38.1611C15.9613 38.1585 15.7991 38.1887 15.6475 38.2498C15.4959 38.3109 15.3581 38.4018 15.2422 38.517L10.0892 43.6843C9.97076 43.7972 9.87648 43.9331 9.81207 44.0836C9.74766 44.234 9.71445 44.396 9.71445 44.5597C9.71445 44.7234 9.74766 44.8854 9.81207 45.0358C9.87648 45.1863 9.97076 45.3222 10.0892 45.4351L14.1461 49.5063C14.3808 49.7393 14.698 49.87 15.0287 49.87C15.3593 49.87 15.6766 49.7393 15.9112 49.5063L21.0642 44.3533C21.2972 44.1186 21.4279 43.8014 21.4279 43.4707C21.4279 43.1401 21.2972 42.8228 21.0642 42.5882L17.0073 38.517C16.8866 38.4003 16.7439 38.3087 16.5875 38.2476C16.4311 38.1865 16.2641 38.1571 16.0963 38.1611H16.1248Z" fill="#38bcea"/>
<path d="M-nan -nanL17.5482 50.147C17.3585 50.1485 17.1718 50.0993 17.0073 50.0046L8.12478 44.7093C7.88694 44.5696 7.71433 44.3411 7.64492 44.0742C7.57551 43.8072 7.61499 43.5236 7.75467 43.2858C7.89436 43.048 8.12281 42.8753 8.38976 42.8059C8.65672 42.7365 8.94031 42.776 9.17816 42.9157L18.0749 48.2253C18.193 48.2942 18.2962 48.386 18.3783 48.4953C18.4603 48.6047 18.5197 48.7294 18.5529 48.862C18.586 48.9947 18.5923 49.1326 18.5713 49.2677C18.5504 49.4028 18.5026 49.5324 18.4308 49.6488C18.3406 49.8022 18.2115 49.929 18.0565 50.0165C17.9015 50.104 17.7262 50.149 17.5482 50.147L-nan -nanZ" fill="#38bcea"/>
<path d="M19.8968 48.0116C19.8968 48.0038 19.8906 47.9974 19.8827 47.9971C19.7011 47.9914 19.5242 47.9376 19.3702 47.8409L10.5529 42.5945C10.3389 42.4671 10.1151 42.3353 9.99034 42.1197C9.9297 42.0149 9.88736 41.8995 9.86615 41.7784C9.82321 41.5331 9.86979 41.2805 9.99741 41.0667C10.125 40.8528 10.3252 40.6919 10.5615 40.6133C10.6793 40.574 10.8022 40.5566 10.9244 40.5606C11.171 40.5689 11.3911 40.7015 11.603 40.8279L20.4235 46.09C20.6206 46.2054 20.7742 46.3825 20.8606 46.5939C20.9469 46.8053 20.9612 47.0392 20.9013 47.2596C20.8413 47.48 20.7105 47.6744 20.5289 47.813C20.3512 47.9486 20.1345 48.0232 19.9112 48.0259C19.9033 48.026 19.8968 48.0195 19.8968 48.0116Z" fill="white"/>
<path d="M-nan -nanL22.0322 45.6912C21.8424 45.6927 21.6557 45.6435 21.4913 45.5489L12.566 40.225C12.3667 40.0706 12.2304 39.8489 12.1824 39.6014C12.1344 39.3539 12.1781 39.0973 12.3052 38.8796C12.4324 38.6619 12.6343 38.4978 12.8735 38.418C13.1127 38.3381 13.3727 38.348 13.6052 38.4457L22.5304 43.7695C22.6485 43.8384 22.7517 43.9302 22.8337 44.0396C22.9158 44.1489 22.9752 44.2736 23.0083 44.4062C23.0415 44.5389 23.0478 44.6768 23.0268 44.812C23.0059 44.9471 22.9581 45.0766 22.8863 45.193C22.7985 45.3422 22.6739 45.4664 22.5243 45.5537C22.3748 45.6409 22.2053 45.6883 22.0322 45.6912L-nan -nanZ" fill="white"/>
<path d="M-nan -nanL19.7404 40.8657C19.4626 40.8602 19.1976 40.7481 19.0002 40.5525C18.8222 40.3582 18.7234 40.1043 18.7234 39.8407C18.7234 39.5772 18.8222 39.3233 19.0002 39.129L21.401 36.7283C21.6973 36.432 22.0342 36.1094 22.4522 36.14C22.4703 36.1413 22.4884 36.1431 22.5065 36.1454C22.7353 36.1743 22.948 36.2785 23.1111 36.4416C23.2742 36.6047 23.3784 36.8174 23.4073 37.0462C23.4096 37.0643 23.4114 37.0824 23.4127 37.1006C23.4433 37.5185 23.1207 37.8554 22.8244 38.1518L20.4237 40.5525C20.2438 40.7396 19.9996 40.8516 19.7404 40.8657L-nan -nanZ" fill="white"/>
<path d="M25.2065 40.5525C24.933 40.5463 24.6727 40.434 24.4805 40.2393L19.299 35.0863C19.1179 34.8936 19.017 34.639 19.017 34.3745C19.017 34.1101 19.1179 33.8555 19.299 33.6628L29.6335 21.7482C33.049 17.7886 36.7762 14.109 40.7794 10.7447L49.1068 3.76964C49.3099 3.60101 49.5688 3.51475 49.8324 3.52793C50.096 3.54111 50.3451 3.65277 50.5303 3.84081L55.6833 8.99382C55.8645 9.18653 55.9653 9.44107 55.9653 9.70557C55.9653 9.97006 55.8645 10.2246 55.6833 10.4173L48.7225 18.7589C45.3873 22.7781 41.7363 26.5243 37.8043 29.9617L25.904 40.2962C25.7104 40.4635 25.4624 40.5546 25.2065 40.5525ZM23.2229 32.2819C22.2387 33.4214 22.301 35.1274 23.3657 36.1921C24.4341 37.2605 26.1474 37.319 27.2862 36.326L36.3809 28.3959C40.2405 25.0346 43.8292 21.3744 47.1139 17.4493L51.7452 11.9166C52.7254 10.7457 52.649 9.02005 51.5693 7.94027C50.4896 6.86064 48.7643 6.78413 47.5933 7.76396L42.0748 12.3817C38.1428 15.6639 34.482 19.258 31.1282 23.129L23.2229 32.2819Z" fill="#38bcea"/>
<path d="M-nan -nanL55.897 11.4708C55.6648 11.472 55.4346 11.4273 55.2196 11.3394C55.0047 11.2515 54.8092 11.122 54.6444 10.9583L48.6088 4.92277C48.4435 4.7587 48.3124 4.56355 48.2229 4.34856C48.1333 4.13357 48.0872 3.90299 48.0872 3.67011C48.0872 3.43723 48.1333 3.20665 48.2229 2.99166C48.3124 2.77667 48.4435 2.58151 48.6088 2.41744L50.0323 0.993958C50.1963 0.828688 50.3915 0.697518 50.6065 0.608007C50.8215 0.518495 51.0521 0.472412 51.285 0.472412C51.5178 0.472412 51.7484 0.518495 51.9634 0.608007C52.1784 0.697518 52.3735 0.828688 52.5376 0.993958L58.5732 7.02953C58.9026 7.36034 59.0876 7.8082 59.0876 8.27508C59.0876 8.74195 58.9026 9.18981 58.5732 9.52063L57.0643 11.0295C56.7419 11.3138 56.3269 11.4707 55.897 11.4708L-nan -nanZM50.8425 3.11771C50.5396 3.39635 50.528 3.87053 50.8168 4.16373L55.3653 8.78148C55.6583 9.07897 56.1376 9.08078 56.4329 8.78551C56.7266 8.49182 56.7266 8.01564 56.4329 7.72194L51.8496 3.13868C51.5738 2.86288 51.1296 2.85363 50.8425 3.11771Z" fill="white"/>
</svg>
