<svg width="59" height="66" viewBox="0 0 59 66" fill="none" xmlns="http://www.w3.org/2000/svg">
<path d="M36.674 9.47982H36.3888C33.5825 8.74781 30.9768 7.3937 28.765 5.51782C28.6501 5.42207 28.5561 5.30382 28.4887 5.17036C28.4212 5.0369 28.3819 4.89105 28.3729 4.74179C28.364 4.59254 28.3857 4.44304 28.4367 4.3025C28.4878 4.16195 28.567 4.03333 28.6696 3.92457C28.7722 3.81581 28.896 3.72919 29.0334 3.67008C29.1707 3.61096 29.3187 3.58058 29.4682 3.58081C29.6177 3.58104 29.7656 3.61187 29.9028 3.67141C30.0399 3.73096 30.1635 3.81793 30.2657 3.92701C32.2175 5.53494 34.4966 6.69757 36.9441 7.33374C37.1947 7.40765 37.4107 7.56871 37.553 7.78786C37.6953 8.00701 37.7546 8.26981 37.7202 8.52884C37.6858 8.78787 37.5599 9.02606 37.3653 9.20044C37.1707 9.37482 36.9202 9.47391 36.6589 9.47982H36.674Z" fill="#38BCEA"/>
<path d="M53.0175 25.2227H52.9425C52.6543 25.1997 52.387 25.0638 52.1986 24.8445C52.0103 24.6252 51.9162 24.3404 51.9369 24.0521C52.1921 20.5404 52.1921 18.2742 52.1921 18.2442C52.1921 9.55481 45.9789 2.47123 38.3551 2.47123C35.3734 2.47464 32.4902 3.53856 30.221 5.47275C30.0211 5.63352 29.7722 5.72117 29.5156 5.72117C29.2591 5.72117 29.0102 5.63352 28.8103 5.47275C26.5411 3.53856 23.6578 2.47464 20.6762 2.47123C13.0523 2.47123 6.83919 9.55481 6.83919 18.2442C6.83919 18.2442 6.83919 20.4053 7.07931 23.767C7.10418 23.9176 7.0973 24.0717 7.05914 24.2194C7.02098 24.3672 6.95236 24.5054 6.85769 24.6251C6.76302 24.7448 6.64438 24.8434 6.50938 24.9146C6.37439 24.9857 6.22602 25.0279 6.07376 25.0384C5.92151 25.0489 5.76874 25.0275 5.62525 24.9755C5.48176 24.9235 5.35072 24.8422 5.24051 24.7366C5.13031 24.631 5.04338 24.5036 4.98529 24.3625C4.92721 24.2213 4.89924 24.0696 4.9032 23.9171C4.64807 20.4803 4.64807 18.3342 4.64807 18.2442C4.64807 8.3392 11.8367 0.235107 20.6762 0.235107C23.8713 0.243669 26.9759 1.29784 29.5156 3.23662C32.0554 1.29784 35.1599 0.243669 38.3551 0.235107C47.1945 0.235107 54.3832 8.27917 54.3832 18.2442C54.3832 18.3342 54.3832 20.6004 54.113 24.2472C54.0802 24.5152 53.9509 24.762 53.7492 24.9416C53.5476 25.1211 53.2875 25.2211 53.0175 25.2227Z" fill="#38BCEA"/>
<path d="M40.7412 65.7432C40.3356 65.7399 39.9321 65.6844 39.5406 65.5781C38.4757 65.2439 37.5497 64.5698 36.9046 63.659C36.2595 62.7482 35.9307 61.651 35.9688 60.5355V53.8272C35.9688 49.7151 33.0724 46.3234 29.5156 46.3234C25.9588 46.3234 23.0623 49.655 23.0623 53.8272V60.5355C23.0988 61.6486 22.7713 62.7432 22.1294 63.6532C21.4875 64.5632 20.5663 65.239 19.5055 65.5781C18.537 65.8447 17.5072 65.7797 16.5798 65.3936C15.6525 65.0074 14.881 64.3222 14.3879 63.447C9.07525 54.8477 6.68904 43.577 5.63851 35.653C5.61455 35.5004 5.62503 35.3444 5.66918 35.1964C5.71332 35.0484 5.79001 34.9121 5.89364 34.7976C5.99647 34.6797 6.12334 34.5853 6.26571 34.5206C6.40809 34.4559 6.56267 34.4224 6.71906 34.4224H52.3121C52.4685 34.4224 52.623 34.4559 52.7654 34.5206C52.9078 34.5853 53.0346 34.6797 53.1375 34.7976C53.2629 34.9144 53.3574 35.0606 53.4124 35.223C53.4674 35.3854 53.4812 35.559 53.4526 35.728C52.4021 43.667 50.0159 54.9227 44.7032 63.522C44.2932 64.205 43.712 64.7692 43.0172 65.1587C42.3223 65.5483 41.5378 65.7497 40.7412 65.7432ZM29.5156 44.1923C34.288 44.1923 38.1599 48.5145 38.1599 53.8272V60.5355C38.0971 61.1849 38.2578 61.8362 38.6152 62.3819C38.9727 62.9277 39.5056 63.3351 40.1259 63.5371C40.634 63.6789 41.1755 63.6415 41.6593 63.431C42.1431 63.2206 42.5396 62.8499 42.7823 62.3815C47.6297 54.5325 49.9409 44.3724 51.0514 36.6735H7.97969C9.09025 44.2973 11.4014 54.5325 16.2489 62.3815C16.4915 62.8499 16.888 63.2206 17.3718 63.431C17.8556 63.6415 18.3971 63.6789 18.9052 63.5371C19.5255 63.3351 20.0585 62.9277 20.4159 62.3819C20.7734 61.8362 20.934 61.1849 20.8712 60.5355V53.8272C20.8712 48.5445 24.7432 44.2223 29.5156 44.2223V44.1923Z" fill="#38BCEA"/>
<path d="M41.7016 30.8956C41.4937 30.8953 41.2902 30.8359 41.1148 30.7243C40.9394 30.6127 40.7994 30.4535 40.7111 30.2653C39.7135 28.1385 38.1307 26.3398 36.1479 25.0799C34.1652 23.82 31.8647 23.1508 29.5155 23.1508C27.1663 23.1508 24.8658 23.82 22.883 25.0799C20.9003 26.3398 19.3175 28.1385 18.3198 30.2653C18.2157 30.4826 18.0438 30.6601 17.8299 30.7711C17.616 30.8821 17.3719 30.9205 17.1342 30.8806C12.5569 30.0552 4.88806 28.0592 4.88806 23.857C4.88806 18.5744 17.2843 15.813 29.5155 15.813C41.7467 15.813 54.1429 18.5744 54.1429 23.857C54.1429 28.0592 46.474 30.0552 41.8967 30.8806L41.7016 30.8956ZM29.5155 20.9606C32.1328 20.968 34.7001 21.6779 36.9493 23.0164C39.1985 24.3548 41.0471 26.2726 42.302 28.5694C48.9503 27.2788 51.9518 25.2227 51.9518 23.857C51.9518 21.4108 43.4125 18.0041 29.5155 18.0041C15.6185 18.0041 7.00413 21.4108 7.00413 23.857C7.00413 25.2377 10.0056 27.2788 16.654 28.5694C17.915 26.2614 19.7754 24.3364 22.0389 22.9972C24.3025 21.6581 26.8855 20.9545 29.5155 20.9606Z" fill="#38BCEA"/>
<path d="M42.9471 36.6285H15.9335C15.6469 36.6285 15.372 36.5146 15.1694 36.312C14.9668 36.1094 14.8529 35.8345 14.8529 35.5479C14.8529 33.6343 15.2298 31.7393 15.9622 29.9713C16.6945 28.2033 17.7679 26.5969 19.121 25.2437C20.4742 23.8906 22.0807 22.8172 23.8487 22.0848C25.6167 21.3525 27.5116 20.9756 29.4253 20.9756C31.3389 20.9756 33.2339 21.3525 35.0019 22.0848C36.7699 22.8172 38.3763 23.8906 39.7295 25.2437C41.0826 26.5969 42.156 28.2033 42.8884 29.9713C43.6207 31.7393 43.9976 33.6343 43.9976 35.5479C43.9977 35.8294 43.888 36.0998 43.6918 36.3016C43.4956 36.5034 43.2284 36.6207 42.9471 36.6285ZM17.104 34.4524H41.7915C41.5073 31.3751 40.084 28.515 37.8005 26.4327C35.517 24.3504 32.5381 23.1961 29.4478 23.1961C26.3574 23.1961 23.3785 24.3504 21.0951 26.4327C18.8116 28.515 17.3882 31.3751 17.104 34.4524Z" fill="#38BCEA"/>
<path d="M53.7375 30.8955C53.5632 30.8933 53.3916 30.8516 53.2357 30.7736C53.0797 30.6957 52.9434 30.5834 52.837 30.4453C52.6768 30.2109 52.6138 29.9234 52.6614 29.6434C52.709 29.3634 52.8634 29.1129 53.0922 28.9446L56.709 26.3483C56.9444 26.2085 57.2236 26.162 57.4917 26.2179C57.7597 26.2737 57.9971 26.4279 58.1571 26.65C58.3171 26.8722 58.3881 27.1462 58.3562 27.4181C58.3243 27.69 58.1918 27.9401 57.9846 28.1191L54.3678 30.7155C54.1802 30.8367 53.9608 30.8994 53.7375 30.8955Z" fill="#38BCEA"/>
<path d="M57.3394 34.8575C57.1259 34.8581 56.917 34.7954 56.7391 34.6774L55.3584 33.7619C55.1404 33.5916 54.9948 33.3451 54.9511 33.0719C54.9073 32.7987 54.9685 32.519 55.1224 32.2891C55.2763 32.0592 55.5115 31.896 55.7808 31.8324C56.0501 31.7687 56.3335 31.8093 56.574 31.946L57.9397 32.8615C58.1405 32.9872 58.2943 33.1753 58.3777 33.397C58.461 33.6187 58.4692 33.8617 58.401 34.0885C58.3328 34.3153 58.1919 34.5134 58.0001 34.6523C57.8083 34.7913 57.5762 34.8634 57.3394 34.8575Z" fill="#38BCEA"/>
<path d="M5.29343 30.8955C5.06697 30.8905 4.84729 30.8173 4.66311 30.6854L1.04628 28.0891C0.839176 27.9101 0.706623 27.66 0.674709 27.3881C0.642795 27.1162 0.71383 26.8422 0.873845 26.62C1.03386 26.3979 1.27125 26.2437 1.53927 26.1878C1.80728 26.132 2.08648 26.1785 2.32191 26.3182L5.93874 28.9145C6.16749 29.0828 6.32196 29.3334 6.36955 29.6134C6.41715 29.8933 6.35415 30.1809 6.19387 30.4153C6.09056 30.5589 5.95565 30.6769 5.79953 30.7602C5.64341 30.8435 5.47027 30.8898 5.29343 30.8955Z" fill="#38BCEA"/>
<path d="M1.69153 34.8576C1.51096 34.8604 1.33257 34.818 1.17264 34.7341C1.01272 34.6502 0.876373 34.5275 0.776067 34.3774C0.620333 34.1375 0.564564 33.8463 0.620646 33.5659C0.676729 33.2855 0.840236 33.0381 1.07624 32.8766L2.45693 31.9611C2.6975 31.8245 2.98086 31.7839 3.25013 31.8475C3.5194 31.9111 3.75463 32.0743 3.90854 32.3042C4.06246 32.5342 4.12368 32.8138 4.0799 33.087C4.03612 33.3602 3.8906 33.6067 3.67254 33.7771L2.29185 34.6925C2.11228 34.8053 1.90349 34.8627 1.69153 34.8576Z" fill="#38BCEA"/>
</svg>
