<svg width="67" height="62" viewBox="0 0 67 62" fill="none" xmlns="http://www.w3.org/2000/svg">
<path d="M39.9368 14.8921C39.8429 14.9077 39.7471 14.9077 39.6532 14.8921C37.1132 14.236 34.7555 13.0112 32.7582 11.3103C32.644 11.215 32.5505 11.0975 32.4835 10.9647C32.4164 10.832 32.3773 10.687 32.3684 10.5386C32.3595 10.3901 32.3811 10.2415 32.4318 10.1017C32.4826 9.96194 32.5614 9.83403 32.6634 9.72587C32.7655 9.61771 32.8886 9.53159 33.0252 9.4728C33.1617 9.41401 33.3089 9.38381 33.4576 9.38403C33.6063 9.38426 33.7533 9.41491 33.8897 9.47412C34.0261 9.53333 34.149 9.61984 34.2507 9.72831C36.0011 11.1436 38.0378 12.162 40.2203 12.7131C40.4695 12.7866 40.6843 12.9468 40.8258 13.1647C40.9674 13.3827 41.0263 13.644 40.9921 13.9016C40.9579 14.1592 40.8327 14.3961 40.6392 14.5695C40.4457 14.7429 40.1965 14.8414 39.9368 14.8473V14.8921Z" fill="#38BCEA"/>
<path d="M43.5933 61.3807C43.2151 61.3825 42.8385 61.3323 42.474 61.2314C41.4965 60.9219 40.6474 60.3003 40.057 59.4619C39.4667 58.6236 39.1676 57.6147 39.2056 56.59V50.6204C39.3085 48.9963 38.7682 47.3971 37.7014 46.1683C36.6345 44.9395 35.127 44.1799 33.5046 44.0538C30.3705 44.0538 27.8036 47.0386 27.8036 50.6204V56.59C27.8416 57.6147 27.5425 58.6236 26.9521 59.4619C26.3618 60.3003 25.5127 60.9219 24.5352 61.2314C23.6458 61.4742 22.7008 61.4138 21.8495 61.0598C20.9982 60.7058 20.2891 60.0783 19.8341 59.2764C11.1184 45.1731 11.0587 23.6376 11.0587 22.7272C11.0587 13.7727 17.5656 6.48975 25.565 6.48975C28.4289 6.49512 31.2141 7.42703 33.5046 9.14624C35.7961 7.42895 38.5807 6.49726 41.4442 6.48975C49.4436 6.48975 55.9505 13.7727 55.9505 22.7272C55.9505 23.6376 55.9505 45.1134 47.1751 59.2764C46.8111 59.907 46.2897 60.4324 45.6619 60.8012C45.0341 61.1701 44.3214 61.3697 43.5933 61.3807ZM33.5046 41.8151C37.8475 41.8151 41.3845 45.7402 41.3845 50.5607V56.5303C41.3402 57.0811 41.4824 57.6308 41.7883 58.091C42.0942 58.5511 42.546 58.8951 43.071 59.0674C43.5043 59.1878 43.9659 59.1538 44.377 58.9714C44.788 58.789 45.123 58.4695 45.3245 58.0675C53.7119 44.5015 53.7715 22.8764 53.7715 22.6675C53.7715 14.9069 48.2347 8.60897 41.4442 8.60897C38.7871 8.62049 36.221 9.57814 34.206 11.3102C34.0072 11.4701 33.7597 11.5573 33.5046 11.5573C33.2495 11.5573 33.002 11.4701 32.8032 11.3102C30.7882 9.57814 28.2221 8.62049 25.565 8.60897C18.7745 8.60897 13.2376 14.9069 13.2376 22.6675C13.2376 22.8764 13.2376 44.5015 21.6847 58.0675C21.8884 58.4676 22.2236 58.7854 22.634 58.9674C23.0444 59.1495 23.5049 59.1848 23.9382 59.0674C24.466 58.8978 24.9211 58.555 25.2299 58.0946C25.5386 57.6341 25.683 57.083 25.6396 56.5303V50.5607C25.6396 45.6954 29.1617 41.7704 33.5046 41.7704V41.8151Z" fill="#38BCEA"/>
<path d="M33.5044 34.0249C21.9531 34.0249 0.119141 32.5325 0.119141 26.9807C0.119141 26.0853 0.119141 23.3691 12.0584 21.4439C12.1989 21.4184 12.3431 21.4215 12.4823 21.4531C12.6215 21.4847 12.7529 21.5441 12.8686 21.6277C12.9843 21.7113 13.0819 21.8175 13.1555 21.9398C13.2291 22.0621 13.2773 22.198 13.2971 22.3393C13.3446 22.6243 13.2769 22.9165 13.109 23.1516C12.9411 23.3867 12.6867 23.5454 12.4017 23.593C4.0591 24.9361 2.35776 26.5778 2.35776 26.9807C2.35776 28.6373 13.3867 31.846 33.579 31.846C53.7714 31.846 64.8003 28.6373 64.8003 26.9807C64.8003 26.6076 63.0989 24.9361 54.7564 23.593C54.6137 23.5712 54.4768 23.5213 54.3535 23.4461C54.2303 23.371 54.1232 23.2721 54.0385 23.1553C53.9539 23.0384 53.8932 22.9059 53.8602 22.7654C53.8272 22.6249 53.8224 22.4792 53.8461 22.3369C53.8698 22.1945 53.9216 22.0583 53.9984 21.9361C54.0752 21.8139 54.1756 21.7082 54.2936 21.6251C54.4116 21.542 54.5449 21.4832 54.6859 21.4521C54.8268 21.421 54.9725 21.4182 55.1145 21.4439C66.9792 23.3691 66.9792 26.0853 66.9792 26.9807C66.9046 32.5474 45.0557 34.0249 33.5044 34.0249Z" fill="#38BCEA"/>
<path d="M11.7452 48.7846C11.4074 48.8034 11.0693 48.7535 10.7512 48.6381C10.4332 48.5227 10.1418 48.3441 9.89461 48.1131C8.92455 47.143 8.17834 45.0536 12.8794 38.0244C12.955 37.8987 13.0552 37.7896 13.174 37.7036C13.2927 37.6176 13.4276 37.5565 13.5706 37.5239C13.7135 37.4912 13.8616 37.4878 14.0059 37.5138C14.1502 37.5397 14.2877 37.5946 14.4104 37.675C14.533 37.7554 14.6381 37.8597 14.7194 37.9817C14.8008 38.1037 14.8566 38.2408 14.8837 38.3849C14.9108 38.529 14.9085 38.6771 14.8769 38.8203C14.8454 38.9635 14.7853 39.0989 14.7002 39.2183C11.193 44.5014 11.2676 46.3669 11.4766 46.5759C12.6406 47.7549 22.7144 42.233 36.9968 27.9506C51.2792 13.6682 56.7862 3.5944 55.6221 2.43032C55.3386 2.14676 52.3836 2.31093 44.1902 8.56414C43.961 8.71079 43.6853 8.76638 43.4172 8.71994C43.1491 8.67351 42.908 8.52841 42.7415 8.31323C42.5749 8.09804 42.495 7.82835 42.5173 7.55716C42.5396 7.28598 42.6625 7.03296 42.862 6.84787C54.3386 -1.92751 56.4579 0.191711 57.1593 0.878221C61.0993 4.81819 46.7124 21.2944 38.534 29.4728C31.266 36.6961 17.5656 48.7846 11.7452 48.7846Z" fill="#38BCEA"/>
<path d="M55.2335 48.8444C53.6366 48.8444 50.9354 47.8743 46.0701 44.5313C39.7952 40.0346 33.9228 35.0011 28.5193 29.4878C23.0149 24.0813 17.9821 18.2147 13.4758 11.9519C8.13296 4.17647 8.86425 1.92292 9.89402 0.893159C10.5955 0.191725 12.7147 -1.9275 24.1913 6.86281C24.3187 6.94434 24.4278 7.05151 24.5115 7.1775C24.5952 7.30349 24.6518 7.44552 24.6776 7.59458C24.7034 7.74363 24.6979 7.89643 24.6614 8.04324C24.625 8.19005 24.5583 8.32766 24.4657 8.44729C24.3731 8.56692 24.2567 8.66595 24.1237 8.73809C23.9907 8.81023 23.8442 8.85388 23.6934 8.86628C23.5427 8.87868 23.391 8.85955 23.248 8.8101C23.1051 8.76065 22.974 8.68197 22.8631 8.57907C14.6847 2.32587 11.7297 2.14678 11.4312 2.44526C11.1327 2.74374 11.1626 4.77343 15.2667 10.7282C19.6978 16.8882 24.651 22.6553 30.0714 27.9655C44.3538 42.2479 54.4127 47.7698 55.5768 46.5908C55.7857 46.3819 55.8603 44.5164 52.3681 39.2332C52.2694 39.1156 52.1967 38.9785 52.1547 38.8308C52.1128 38.6832 52.1025 38.5283 52.1246 38.3764C52.1467 38.2245 52.2006 38.0789 52.2828 37.9493C52.3651 37.8197 52.4738 37.7089 52.6019 37.6242C52.7299 37.5396 52.8744 37.4829 53.0259 37.458C53.1774 37.4331 53.3324 37.4405 53.4809 37.4797C53.6293 37.5189 53.7677 37.589 53.8872 37.6854C54.0066 37.7819 54.1043 37.9025 54.1739 38.0393C58.8302 45.0686 58.084 47.1579 57.1587 48.128C56.9089 48.3798 56.6073 48.5742 56.2749 48.6979C55.9425 48.8216 55.5871 48.8716 55.2335 48.8444Z" fill="#38BCEA"/>
</svg>
