<svg width="60" height="77" viewBox="0 0 60 77" fill="none" xmlns="http://www.w3.org/2000/svg">
<path d="M36.8345 10.1231H36.502C33.6961 9.38158 31.0904 8.0249 28.8738 6.15153C28.6256 5.91952 28.4796 5.59839 28.4681 5.25879C28.4567 4.91919 28.5806 4.58899 28.8126 4.34074C29.0446 4.09249 29.3657 3.94654 29.7053 3.93506C30.0449 3.92357 30.3752 4.04749 30.6234 4.2795C32.5289 5.87375 34.7634 7.02685 37.1669 7.65621C37.4591 7.74238 37.7108 7.93012 37.8768 8.1856C38.0427 8.44109 38.1118 8.74748 38.0717 9.04945C38.0316 9.35143 37.8848 9.62912 37.6579 9.83241C37.4311 10.0357 37.139 10.1512 36.8345 10.1581V10.1231Z" fill="#38BCEA"/>
<path d="M39.8785 45.6748H19.5657C16.5504 45.6603 13.6403 44.5647 11.3641 42.5871C9.08789 40.6094 7.59659 37.881 7.16108 34.8972L5.20154 21.1454C4.71354 17.9637 5.02621 14.7106 6.11131 11.6801C7.15074 8.54206 9.13013 5.79968 11.7811 3.82479C14.432 1.8499 17.6261 0.738071 20.9304 0.640137C24.0833 0.656321 27.1485 1.68012 29.6784 3.56198C32.2065 1.67681 35.2728 0.652634 38.4263 0.640137C41.7543 0.725322 44.9742 1.83918 47.6434 3.82858C50.3127 5.81797 52.3002 8.58526 53.3329 11.7501C54.418 14.7806 54.7307 18.0337 54.2427 21.2154L52.2832 34.9672C51.8324 37.9381 50.3345 40.6501 48.0598 42.6136C45.7851 44.5771 42.8834 45.6628 39.8785 45.6748ZM20.9829 3.19453C18.1989 3.29686 15.5134 4.25095 13.2889 5.92795C11.0643 7.60496 9.40794 9.92414 8.54327 12.5724C7.6143 15.2086 7.35572 18.0345 7.79091 20.7955L9.73299 34.5473C10.0842 36.9218 11.2743 39.092 13.0877 40.6647C14.9011 42.2374 17.2179 43.1085 19.6182 43.1203H39.8785C42.2788 43.1085 44.5956 42.2374 46.409 40.6647C48.2224 39.092 49.4125 36.9218 49.7637 34.5473L51.7058 20.7955C52.141 18.0345 51.8824 15.2086 50.9535 12.5724C50.0878 9.92142 48.4287 7.60029 46.2007 5.92304C43.9727 4.24579 41.2833 3.29334 38.4963 3.19453C35.5849 3.21237 32.775 4.26687 30.5707 6.16886C30.3376 6.3563 30.0475 6.45847 29.7484 6.45847C29.4493 6.45847 29.1591 6.3563 28.9261 6.16886C26.7171 4.26297 23.9003 3.20822 20.9829 3.19453Z" fill="#38BCEA"/>
<path d="M29.7482 76.1877C29.4612 76.1877 29.1825 76.0911 28.9572 75.9133C28.7318 75.7355 28.5728 75.4871 28.506 75.2079C28.4318 74.8788 28.4891 74.5337 28.6655 74.2461C28.842 73.9586 29.1237 73.7513 29.4508 73.6683L30.588 73.4058L19.5656 72.986C19.2561 72.9746 18.9613 72.8513 18.736 72.6389C18.5108 72.4265 18.3703 72.1394 18.3408 71.8312C18.3187 71.5251 18.4047 71.2209 18.5837 70.9715C18.7627 70.7222 19.0235 70.5435 19.3206 70.4665L30.588 67.7372L19.5831 67.2823C19.2748 67.2673 18.982 67.1428 18.7575 66.9311C18.5329 66.7194 18.3913 66.4344 18.3583 66.1275C18.329 65.82 18.4121 65.5123 18.5923 65.2614C18.7724 65.0105 19.0374 64.8334 19.3381 64.7628L30.5705 62.1035L19.5656 61.6486C19.2671 61.6244 18.9866 61.4962 18.7731 61.2862C18.5596 61.0763 18.4267 60.798 18.3975 60.5C18.3683 60.2019 18.4448 59.9032 18.6135 59.6558C18.7822 59.4084 19.0325 59.2282 19.3206 59.1466L30.5705 56.4873L19.5656 56.0324C19.2567 56.0207 18.9626 55.8975 18.7377 55.6855C18.5128 55.4736 18.3724 55.1873 18.3425 54.8797C18.3126 54.5721 18.3953 54.2641 18.5751 54.0128C18.755 53.7615 19.0198 53.5839 19.3206 53.5129L30.553 50.8536L19.5481 50.3987C19.2304 50.4035 18.9228 50.2881 18.6866 50.0757C18.4504 49.8633 18.3032 49.5695 18.2745 49.2532C18.2457 48.9368 18.3375 48.6213 18.5315 48.3698C18.7255 48.1183 19.0073 47.9493 19.3206 47.8968L39.5809 43.2428C39.7476 43.1944 39.9224 43.1805 40.0947 43.2019C40.2669 43.2233 40.433 43.2795 40.5828 43.3672C40.7325 43.455 40.8628 43.5723 40.9658 43.7121C41.0687 43.8519 41.142 44.0111 41.1813 44.1802C41.2206 44.3493 41.225 44.5246 41.1943 44.6954C41.1636 44.8662 41.0983 45.029 41.0026 45.1738C40.9069 45.3186 40.7826 45.4423 40.6374 45.5375C40.4923 45.6326 40.3292 45.6972 40.1583 45.7273L28.9259 48.3866L39.9309 48.8416C40.2387 48.8487 40.5333 48.9683 40.759 49.1778C40.9846 49.3874 41.1257 49.6723 41.1556 49.9788C41.1849 50.2863 41.1018 50.594 40.9217 50.8449C40.7415 51.0958 40.4765 51.2729 40.1758 51.3435L28.9434 54.0028L39.9483 54.4577C40.256 54.4729 40.5478 54.5988 40.77 54.8121C40.9922 55.0254 41.1298 55.3118 41.1575 55.6186C41.1852 55.9253 41.1011 56.2318 40.9207 56.4814C40.7403 56.7311 40.4757 56.9071 40.1758 56.9772L28.9434 59.6365L39.9483 60.0739C40.2555 60.0923 40.5464 60.218 40.7703 60.4291C40.9941 60.6401 41.1367 60.9232 41.1731 61.2287C41.2024 61.5362 41.1193 61.8438 40.9391 62.0948C40.759 62.3457 40.494 62.5228 40.1933 62.5934L28.9434 65.2527L39.9483 65.7076C40.2572 65.7193 40.5513 65.8425 40.7762 66.0545C41.0011 66.2664 41.1415 66.5527 41.1714 66.8603C41.2013 67.1679 41.1187 67.4759 40.9388 67.7272C40.759 67.9785 40.4941 68.1561 40.1933 68.2271L28.9609 70.869L39.9659 71.3238C40.2722 71.3392 40.5628 71.4645 40.7844 71.6765C41.0061 71.8885 41.1441 72.1732 41.1731 72.4786C41.207 72.7843 41.1278 73.0919 40.9505 73.3433C40.7733 73.5947 40.5101 73.7725 40.2108 73.8432L30.0631 76.1527C29.961 76.1827 29.8544 76.1945 29.7482 76.1877Z" fill="#38BCEA"/>
<path d="M48.364 68.5771C48.158 68.5794 47.9546 68.5312 47.7716 68.4366C47.5886 68.3421 47.4315 68.2041 47.3142 68.0347C47.1292 67.7593 47.0586 67.4227 47.1174 67.0961C47.1762 66.7696 47.3597 66.4787 47.6292 66.2851L57.042 59.8291C57.181 59.7338 57.3374 59.6667 57.5023 59.6318C57.6673 59.5969 57.8375 59.5948 58.0032 59.6257C58.1689 59.6566 58.3269 59.7198 58.4682 59.8117C58.6095 59.9037 58.7313 60.0225 58.8266 60.1615C58.922 60.3006 58.989 60.4569 59.0239 60.6219C59.0588 60.7868 59.0609 60.957 59.03 61.1227C58.9991 61.2884 58.9359 61.4464 58.844 61.5877C58.752 61.729 58.6332 61.8508 58.4942 61.9461L49.0813 68.3846C48.8675 68.5204 48.6171 68.5876 48.364 68.5771Z" fill="#38BCEA"/>
<path d="M48.4691 54.3879C48.1978 54.3857 47.9343 54.2972 47.7166 54.1353C47.499 53.9733 47.3386 53.7462 47.2587 53.487C47.1788 53.2277 47.1835 52.9497 47.2721 52.6933C47.3608 52.4369 47.5288 52.2155 47.7518 52.0609L57.1646 45.6049C57.3013 45.491 57.4603 45.407 57.6315 45.3581C57.8026 45.3093 57.982 45.2967 58.1582 45.3213C58.3345 45.3458 58.5037 45.4069 58.6549 45.5007C58.8062 45.5944 58.9362 45.7188 59.0366 45.8657C59.137 46.0126 59.2055 46.1789 59.2379 46.3539C59.2703 46.5288 59.2657 46.7087 59.2246 46.8818C59.1834 47.0549 59.1065 47.2175 58.9988 47.3592C58.8911 47.5008 58.7551 47.6184 58.5993 47.7044L49.204 54.1604C48.9887 54.311 48.7318 54.3905 48.4691 54.3879Z" fill="#38BCEA"/>
<path d="M11.15 68.5771C10.8931 68.5772 10.6425 68.4978 10.4327 68.3496L1.03734 61.8936C0.761344 61.7056 0.571299 61.4157 0.508964 61.0876C0.446629 60.7595 0.517102 60.4201 0.704918 60.144C0.895866 59.8717 1.1855 59.6846 1.51223 59.6226C1.83895 59.5605 2.177 59.6283 2.45451 59.8116L11.8673 66.2676C12.1361 66.4613 12.3203 66.7507 12.3822 67.0761C12.444 67.4016 12.3787 67.7384 12.1998 68.0172C12.0813 68.1866 11.9244 68.3256 11.742 68.4229C11.5595 68.5202 11.3567 68.573 11.15 68.5771Z" fill="#38BCEA"/>
<path d="M11.0452 54.3879C10.7879 54.3904 10.5366 54.3107 10.3278 54.1604L0.914987 47.7044C0.642695 47.5135 0.455625 47.2238 0.393547 46.8971C0.331469 46.5704 0.399274 46.2323 0.58256 45.9548C0.770562 45.6788 1.06045 45.4888 1.38853 45.4264C1.71661 45.3641 2.05603 45.4346 2.33216 45.6224L11.745 52.0784C11.968 52.2329 12.136 52.4545 12.2246 52.7109C12.3133 52.9673 12.318 53.2452 12.2381 53.5045C12.1582 53.7637 11.9977 53.9908 11.7801 54.1528C11.5625 54.3148 11.2989 54.4033 11.0276 54.4054L11.0452 54.3879Z" fill="#38BCEA"/>
</svg>
