<svg width="77" height="80" viewBox="0 0 77 80" fill="none" xmlns="http://www.w3.org/2000/svg">
<path d="M56.5644 28.1095C56.3363 28.1113 56.1119 28.0522 55.9142 27.9384C53.9025 26.7346 52.184 25.0979 50.8835 23.1473C50.8002 23.0058 50.7457 22.8492 50.7229 22.6866C50.7002 22.524 50.7098 22.3584 50.7511 22.1995C50.7925 22.0406 50.8647 21.8914 50.9637 21.7604C51.0628 21.6294 51.1867 21.5192 51.3284 21.4362C51.4676 21.3475 51.6234 21.2881 51.7863 21.2616C51.9492 21.2351 52.1158 21.2421 52.2759 21.2821C52.4361 21.3222 52.5863 21.3944 52.7176 21.4944C52.8489 21.5945 52.9584 21.7202 53.0395 21.864C54.1369 23.4627 55.567 24.8052 57.2317 25.7995C57.5121 25.9729 57.7126 26.25 57.7895 26.5705C57.8664 26.891 57.8135 27.229 57.6424 27.5107C57.5339 27.6988 57.3763 27.854 57.1864 27.9595C56.9965 28.065 56.7815 28.1169 56.5644 28.1095Z" fill="#38BCEA"/>
<path d="M49.0184 68.1494C48.3051 68.1421 47.6072 67.941 46.9993 67.5677C46.2044 67.0306 45.6069 66.2482 45.298 65.34C44.989 64.4317 44.9856 63.4474 45.2882 62.537L46.7426 57.4036C47.1706 56.0259 47.0731 54.5385 46.4688 53.2285C46.2134 52.6595 45.8381 52.1523 45.3685 51.7418C44.899 51.3313 44.3462 51.0271 43.7481 50.8501C43.1461 50.685 42.5158 50.6499 41.8992 50.7473C41.2826 50.8446 40.6938 51.0722 40.1719 51.4147C38.9573 52.2132 38.0799 53.4318 37.7079 54.837L36.2535 59.9703C36.0208 60.9033 35.4876 61.7338 34.7362 62.3337C33.9847 62.9336 33.0568 63.2696 32.0955 63.2899C31.2207 63.287 30.3723 62.9902 29.6864 62.4471C29.0006 61.904 28.5172 61.1462 28.3139 60.2954C24.3783 46.2301 29.5801 27.9725 29.8026 27.2025C32.027 19.5024 39.4361 14.8653 46.3319 16.9358C48.733 17.6329 50.8528 19.07 52.3893 21.0425C54.7437 20.1939 57.3048 20.1041 59.7129 20.7858C61.4008 21.2893 62.9613 22.1485 64.2894 23.3055C65.6176 24.4625 66.6826 25.8904 67.4129 27.4934C68.9847 30.9005 69.2585 34.7642 68.1829 38.3589C67.9604 39.1289 62.656 57.3523 51.8417 67.157C51.0598 67.8326 50.0511 68.1872 49.0184 68.1494ZM42.5504 48.2321C43.1696 48.232 43.7859 48.3184 44.3813 48.4887C45.3196 48.7683 46.1871 49.246 46.925 49.8895C47.663 50.533 48.2543 51.3274 48.659 52.219C49.5339 54.0696 49.6924 56.1788 49.1039 58.1394L47.6324 63.2728C47.4836 63.6669 47.4701 64.0994 47.594 64.5021C47.7179 64.9048 47.9722 65.2549 48.3168 65.4972C48.593 65.6439 48.9095 65.6966 49.2183 65.6472C49.5271 65.5978 49.8113 65.449 50.0279 65.2234C60.2946 55.8807 65.5991 37.8456 65.6504 37.5889C66.5569 34.5789 66.3318 31.3413 65.0173 28.4858C64.4412 27.2003 63.594 26.0546 62.5337 25.1273C61.4734 24.1999 60.2251 23.5127 58.8744 23.1129C56.6997 22.5005 54.3785 22.6763 52.3208 23.6091C52.0522 23.724 51.7522 23.7425 51.4715 23.6614C51.1908 23.5803 50.9468 23.4047 50.7808 23.1642C49.5718 21.2738 47.7365 19.8686 45.5962 19.1944C40.0179 17.586 33.9948 21.4702 32.1468 27.8527C32.1468 28.0238 27.0135 46.1958 30.6581 59.5767C30.7203 59.9019 30.8915 60.1961 31.1435 60.4108C31.3955 60.6255 31.7132 60.7477 32.0441 60.7574C32.4553 60.7217 32.8439 60.5541 33.1522 60.2798C33.4606 60.0054 33.672 59.6388 33.7552 59.2345L35.2097 54.1012C35.7596 52.127 37.0136 50.4227 38.7346 49.3101C39.8943 48.5889 41.2362 48.2148 42.6017 48.2321H42.5504Z" fill="#38BCEA"/>
<path d="M41.0789 79.2718C37.1788 79.3373 33.3419 78.2823 30.0237 76.2319C26.7055 74.1815 24.0454 71.222 22.3593 67.7046C21.5905 65.8957 20.3129 64.3489 18.6817 63.2524C17.0505 62.1558 15.1359 61.5565 13.1706 61.5275H6.68546C6.51032 61.5481 6.3328 61.5314 6.16458 61.4785C5.99636 61.4255 5.84125 61.3376 5.70946 61.2204C5.57768 61.1032 5.47221 60.9594 5.39999 60.7985C5.32776 60.6377 5.29041 60.4633 5.29041 60.287C5.29041 60.1106 5.32776 59.9362 5.39999 59.7754C5.47221 59.6145 5.57768 59.4707 5.70946 59.3535C5.84125 59.2363 5.99636 59.1484 6.16458 59.0954C6.3328 59.0425 6.51032 59.0258 6.68546 59.0464H13.1706C15.6157 59.0701 18.0011 59.804 20.0366 61.159C22.0721 62.5139 23.6697 64.4314 24.6351 66.678C26.1778 69.7134 28.5307 72.2626 31.433 74.0431C34.3353 75.8237 37.6739 76.7662 41.0789 76.7662C44.4839 76.7662 47.8224 75.8237 50.7248 74.0431C53.6271 72.2626 55.9799 69.7134 57.5227 66.678C58.4862 64.4301 60.0835 62.5114 62.1193 61.1562C64.1552 59.801 66.5416 59.0679 68.9871 59.0464H75.4723C75.6474 59.0258 75.825 59.0425 75.9932 59.0954C76.1614 59.1484 76.3165 59.2363 76.4483 59.3535C76.5801 59.4707 76.6855 59.6145 76.7578 59.7754C76.83 59.9362 76.8673 60.1106 76.8673 60.287C76.8673 60.4633 76.83 60.6377 76.7578 60.7985C76.6855 60.9594 76.5801 61.1032 76.4483 61.2204C76.3165 61.3376 76.1614 61.4255 75.9932 61.4785C75.825 61.5314 75.6474 61.5481 75.4723 61.5275H68.9871C67.0224 61.5681 65.1106 62.1718 63.4788 63.2667C61.847 64.3617 60.5637 65.9019 59.7813 67.7046C58.0999 71.2219 55.4432 74.1821 52.1276 76.2327C48.8119 78.2834 44.9769 79.3383 41.0789 79.2718Z" fill="#38BCEA"/>
<path d="M11.5107 36.2543C10.2302 36.2526 8.98947 35.809 7.99811 34.9985C7.00675 34.1879 6.32548 33.0601 6.06937 31.8054L0.0975988 2.22024C0.0577388 2.05562 0.0527385 1.88448 0.0829252 1.71782C0.113112 1.55115 0.177806 1.39264 0.272872 1.25246C0.367938 1.11227 0.491286 0.993519 0.634959 0.903815C0.778632 0.814111 0.939463 0.755441 1.10715 0.731571C1.26797 0.696713 1.43415 0.694427 1.59587 0.724848C1.75759 0.75527 1.9116 0.817782 2.04876 0.908694C2.18593 0.999607 2.30349 1.11708 2.39451 1.25417C2.48553 1.39127 2.54816 1.54521 2.57871 1.70691L8.55051 31.275C8.71156 32.0679 9.17984 32.765 9.85311 33.2138C10.5264 33.6627 11.3499 33.8269 12.1438 33.6705C12.9414 33.5035 13.6417 33.0304 14.0945 32.353C14.5381 31.6767 14.6979 30.8531 14.5394 30.0601L10.7749 11.6656C10.7335 11.3505 10.8136 11.0315 10.9991 10.7734C11.1846 10.5154 11.4615 10.3378 11.7733 10.2767C12.0852 10.2156 12.4086 10.2757 12.6777 10.4448C12.9469 10.6138 13.1414 10.879 13.2218 11.1865L16.9521 29.6152C17.0964 30.3282 17.0982 31.0627 16.9572 31.7763C16.8162 32.49 16.5353 33.1687 16.1307 33.7732C15.3145 34.999 14.048 35.8536 12.6058 36.1516C12.2448 36.2197 11.8782 36.254 11.5107 36.2543Z" fill="#38BCEA"/>
<path d="M25.1656 59.7138C25.0125 59.7382 24.8566 59.7382 24.7036 59.7138L11.1515 54.2212C10.9923 54.1566 10.8482 54.0599 10.7281 53.937C10.6079 53.8142 10.5144 53.6679 10.4534 53.5074C10.3924 53.3468 10.3651 53.1753 10.3734 53.0037C10.3816 52.8321 10.4252 52.6641 10.5013 52.51L13.3931 46.3671L11.1344 35.2278C11.0688 34.9033 11.1347 34.5661 11.3176 34.2902C11.5005 34.0143 11.7854 33.8222 12.1097 33.7562C12.2706 33.7214 12.4368 33.7191 12.5985 33.7495C12.7602 33.7799 12.9142 33.8424 13.0514 33.9334C13.1885 34.0243 13.3061 34.1417 13.3971 34.2788C13.4881 34.4159 13.5508 34.5699 13.5813 34.7316L15.9256 46.2645C15.9791 46.531 15.943 46.8077 15.8229 47.0516L13.3247 52.3732L25.6276 57.3696C25.7913 57.429 25.9407 57.522 26.0663 57.6426C26.192 57.7632 26.291 57.9088 26.3571 58.0699C26.4231 58.231 26.4548 58.4042 26.45 58.5783C26.4452 58.7523 26.404 58.9235 26.3291 59.0807C26.2125 59.2834 26.0421 59.4498 25.8367 59.5616C25.6314 59.6733 25.3991 59.726 25.1656 59.7138Z" fill="#38BCEA"/>
<path d="M39.6752 34.184C39.4241 34.187 39.1782 34.1132 38.9702 33.9725C38.7623 33.8318 38.6023 33.631 38.5116 33.3969L37.1256 29.8206C37.0222 29.5389 37.0222 29.2297 37.1256 28.948L38.3576 25.5257L35.791 19.9646C35.7044 19.8143 35.6501 19.6476 35.6315 19.4751C35.6129 19.3027 35.6304 19.1282 35.6829 18.9629C35.7354 18.7976 35.8218 18.645 35.9366 18.5149C36.0513 18.3848 36.1919 18.28 36.3494 18.2073C36.5068 18.1345 36.6777 18.0953 36.8512 18.0922C37.0246 18.0892 37.1968 18.1222 37.3568 18.1894C37.5167 18.2565 37.6609 18.3562 37.7802 18.4821C37.8995 18.6081 37.9913 18.7575 38.0496 18.9208L40.8388 24.9268C40.9579 25.2292 40.9579 25.5656 40.8388 25.8679L39.5897 29.3928L40.8217 32.4557C40.9359 32.7649 40.9267 33.1062 40.7961 33.4089C40.6655 33.7115 40.4234 33.9523 40.1201 34.0813C39.978 34.1385 39.8279 34.1731 39.6752 34.184Z" fill="#38BCEA"/>
<path d="M42.7219 27.6816C42.597 27.6983 42.4704 27.6983 42.3455 27.6816L39.2997 26.7233C38.9837 26.6211 38.7205 26.3988 38.5668 26.1043C38.4132 25.8099 38.3814 25.4668 38.4783 25.1491C38.5268 24.9916 38.6064 24.8453 38.7124 24.7191C38.8184 24.5929 38.9486 24.4892 39.0954 24.4142C39.2422 24.3392 39.4026 24.2944 39.567 24.2825C39.7314 24.2706 39.8965 24.2918 40.0525 24.3449L43.0983 25.3031C43.3753 25.3985 43.6099 25.5882 43.7612 25.839C43.9125 26.0899 43.9708 26.3859 43.926 26.6754C43.8811 26.9649 43.736 27.2294 43.5159 27.4227C43.2958 27.616 43.0148 27.7258 42.7219 27.7329V27.6816Z" fill="#38BCEA"/>
</svg>
