<svg width="61" height="62" viewBox="0 0 61 62" fill="none" xmlns="http://www.w3.org/2000/svg">
<path d="M11.6282 61.9365C10.9654 61.9297 10.3153 61.7535 9.73971 61.4246C9.16417 61.0958 8.68231 60.6252 8.33997 60.0575C5.17984 55.0896 4.76703 51.2888 4.29728 46.8903C4.16917 45.6803 4.02682 44.4419 3.82753 43.1038C2.0746 40.43 0.990716 37.3736 0.667394 34.1928C0.311523 30.4633 0.311523 28.0149 0.311523 27.9152C0.311523 20.0149 6.23322 13.595 13.5072 13.595C13.7828 13.595 14.0471 13.7044 14.242 13.8993C14.4369 14.0942 14.5464 14.3585 14.5464 14.6341C14.5464 14.9097 14.4369 15.174 14.242 15.3689C14.0471 15.5638 13.7828 15.6732 13.5072 15.6732C7.37201 15.6732 2.3898 21.1679 2.3898 27.9152C2.3898 27.9152 2.38981 30.3778 2.73144 33.9935C2.99477 36.8963 3.97287 39.6889 5.57841 42.1216C5.6653 42.2434 5.71924 42.3856 5.73499 42.5344C5.96275 43.9579 6.1051 45.3814 6.24745 46.634C6.70296 50.9045 7.07306 54.3493 9.97697 58.9187C10.1709 59.2687 10.4779 59.5424 10.8477 59.695C11.2176 59.8476 11.6283 59.87 12.0126 59.7585C12.4519 59.6091 12.8295 59.3188 13.0869 58.9327C13.3443 58.5466 13.467 58.0863 13.436 57.6233V52.3422C13.3597 51.3526 13.4887 50.3578 13.8149 49.4204C14.1412 48.483 14.6577 47.6231 15.332 46.8947C16.0064 46.1663 16.8239 45.5852 17.7335 45.1878C18.643 44.7903 19.6249 44.5852 20.6175 44.5852C21.6101 44.5852 22.592 44.7903 23.5015 45.1878C24.4111 45.5852 25.2287 46.1663 25.903 46.8947C26.5773 47.6231 27.0938 48.483 27.4201 49.4204C27.7464 50.3578 27.8754 51.3526 27.799 52.3422V57.6233C27.768 58.0863 27.8907 58.5466 28.1481 58.9327C28.4055 59.3188 28.7832 59.6091 29.2225 59.7585C29.6068 59.8673 30.0166 59.8437 30.3858 59.6913C30.755 59.539 31.0623 59.2668 31.258 58.9187C32.7144 56.6893 33.7426 54.2081 34.2901 51.602C34.345 51.3322 34.5047 51.0951 34.7343 50.943C34.9638 50.7908 35.2444 50.736 35.5143 50.7906C35.7852 50.8488 36.0224 51.0114 36.1742 51.2432C36.3261 51.475 36.3805 51.7574 36.3257 52.029C35.7292 54.8817 34.5991 57.596 32.9947 60.029C32.5617 60.7578 31.8991 61.3222 31.1108 61.6339C30.3226 61.9457 29.4531 61.9869 28.6388 61.7514C27.771 61.4686 27.0166 60.9151 26.4863 60.1722C25.956 59.4293 25.6777 58.536 25.6922 57.6233V52.3422C25.768 51.6258 25.6922 50.9015 25.4699 50.2162C25.2476 49.531 24.8837 48.9001 24.4018 48.3646C23.9199 47.8291 23.3308 47.4009 22.6727 47.1078C22.0147 46.8147 21.3023 46.6633 20.5819 46.6633C19.8615 46.6633 19.1492 46.8147 18.4911 47.1078C17.833 47.4009 17.2439 47.8291 16.7621 48.3646C16.2802 48.9001 15.9163 49.531 15.694 50.2162C15.4716 50.9015 15.3959 51.6258 15.4716 52.3422V57.6233C15.4861 58.536 15.2078 59.4293 14.6775 60.1722C14.1472 60.9151 13.3929 61.4686 12.525 61.7514C12.2338 61.8461 11.9331 61.9081 11.6282 61.9365Z" fill="#38BCEA"/>
<path d="M59.059 44.627C58.8797 44.6259 58.7036 44.5797 58.5468 44.4926C58.3901 44.4056 58.2578 44.2804 58.1622 44.1288L33.8349 3.45983C33.6413 3.14897 33.3354 2.92464 32.9808 2.83349C32.804 2.78435 32.6189 2.77289 32.4375 2.79987C32.256 2.82684 32.0822 2.89163 31.9274 2.99005C31.7698 3.08164 31.6329 3.20478 31.5251 3.35175C31.4173 3.49871 31.3411 3.66635 31.3011 3.84415C31.2528 4.02101 31.2418 4.20597 31.2688 4.3873C31.2957 4.56863 31.36 4.74239 31.4576 4.89756L52.6391 40.2996C52.7628 40.5346 52.7919 40.8081 52.7204 41.0638C52.6488 41.3196 52.482 41.5382 52.2543 41.6749C52.0266 41.8115 51.7552 41.8558 51.4958 41.7985C51.2365 41.7413 51.0088 41.587 50.8597 41.3672L29.6641 5.95092C29.1946 5.16362 29.0569 4.2222 29.2811 3.33341C29.5053 2.44463 30.0731 1.68114 30.8598 1.2107C31.2488 0.973532 31.6811 0.815928 32.1315 0.746963C32.5818 0.677999 33.0415 0.699068 33.4837 0.808954C33.9258 0.91884 34.3418 1.11534 34.7075 1.38711C35.0733 1.65888 35.3815 2.00052 35.6142 2.39222L59.9416 43.0612C60.0134 43.1775 60.0611 43.3071 60.0821 43.4422C60.1031 43.5773 60.0968 43.7152 60.0636 43.8479C60.0305 43.9805 59.9711 44.1052 59.889 44.2146C59.8069 44.3239 59.7038 44.4158 59.5857 44.4846C59.4257 44.5775 59.244 44.6266 59.059 44.627Z" fill="#38BCEA"/>
<path d="M35.8278 48.6696C35.6658 48.6708 35.506 48.6326 35.3621 48.5582C35.2183 48.4838 35.0947 48.3754 35.0021 48.2425C34.892 48.0983 34.822 47.9274 34.7995 47.7474C34.777 47.5673 34.8027 47.3845 34.874 47.2176C37.9772 39.9151 30.0627 34.6055 29.721 34.4062C29.583 34.319 29.4682 34.1996 29.3864 34.0583C29.3046 33.917 29.2582 33.758 29.2513 33.5948C29.244 33.4303 29.2749 33.2662 29.3416 33.1156C29.4083 32.965 29.5089 32.8318 29.6356 32.7265C31.7566 31.0326 31.7993 29.4525 31.5715 28.5557C23.9274 31.5593 16.9808 24.6412 16.6819 24.2853C16.549 24.157 16.4533 23.9952 16.4048 23.8169C16.3563 23.6387 16.3569 23.4507 16.4065 23.2728C16.456 23.0948 16.5528 22.9336 16.6865 22.8061C16.8202 22.6786 16.9858 22.5897 17.1659 22.5486C21.8492 21.3671 23.7139 20.1571 24.4541 19.4027C19.3153 18.4632 16.2976 11.3601 16.1695 11.0327C16.0891 10.8452 16.0666 10.6381 16.1046 10.4378C16.1426 10.2374 16.2396 10.053 16.383 9.90809C16.5191 9.76061 16.6971 9.65834 16.893 9.61508C17.089 9.57182 17.2935 9.58961 17.4791 9.66608C17.7495 9.75149 24.1552 12.0006 31.2157 6.6483C31.4341 6.49508 31.7025 6.43047 31.9667 6.46745C32.2309 6.50444 32.4712 6.64031 32.6392 6.84761C32.7958 7.06484 32.8625 7.33415 32.8253 7.59936C32.7882 7.86457 32.6501 8.10522 32.4399 8.27109C30.5702 9.77597 28.4174 10.8903 26.1092 11.548C23.801 12.2057 21.3843 12.3936 19.0022 12.1003C20.2833 14.3067 22.7317 17.6091 25.8349 17.3814C26.0663 17.3676 26.2957 17.4315 26.4866 17.5631C26.6774 17.6946 26.8188 17.8862 26.8883 18.1074C26.9621 18.4134 26.9737 18.7311 26.9224 19.0416C26.871 19.3522 26.7578 19.6493 26.5893 19.9152C25.7068 21.4952 23.3438 22.8618 19.5431 24.0006C21.8776 25.7799 26.7602 28.6127 31.5858 26.1785C31.8061 26.0621 32.0616 26.0311 32.3033 26.0915C32.545 26.152 32.7558 26.2995 32.8954 26.5059C33.558 27.5913 33.817 28.8754 33.6269 30.1327C33.4369 31.39 32.81 32.5402 31.8563 33.3813C34.0627 35.2034 38.8598 39.9721 37.3367 46.1927C40.326 45.4525 46.5324 43.2034 48.7245 37.0254C48.8178 36.7674 49.0093 36.5568 49.2574 36.4394C49.5054 36.3221 49.7897 36.3076 50.0484 36.3991C50.3074 36.4954 50.5183 36.6896 50.6354 36.9399C50.7526 37.1903 50.7667 37.4766 50.6747 37.7372C47.2868 47.1749 36.3402 48.5272 35.8705 48.5841L35.8278 48.6696Z" fill="#38BCEA"/>
<path d="M8.41161 25.8228C8.27581 25.8228 8.14136 25.7958 8.01607 25.7434C7.89079 25.691 7.77715 25.6142 7.68179 25.5176C7.58643 25.4209 7.51125 25.3062 7.46059 25.1802C7.40993 25.0542 7.38481 24.9194 7.3867 24.7837V23.6164C7.36956 23.4707 7.38345 23.323 7.42749 23.1831C7.47153 23.0431 7.54471 22.9141 7.6422 22.8044C7.73969 22.6948 7.85928 22.6071 7.99312 22.547C8.12696 22.4869 8.272 22.4558 8.41871 22.4558C8.56542 22.4558 8.71046 22.4869 8.8443 22.547C8.97814 22.6071 9.09775 22.6948 9.19524 22.8044C9.29273 22.9141 9.36589 23.0431 9.40993 23.1831C9.45397 23.323 9.46789 23.4707 9.45074 23.6164V24.7837C9.45266 24.9206 9.42709 25.0566 9.37555 25.1835C9.324 25.3105 9.24753 25.4258 9.15065 25.5227C9.05377 25.6196 8.93847 25.696 8.81153 25.7476C8.68459 25.7991 8.5486 25.8247 8.41161 25.8228Z" fill="#38BCEA"/>
<path d="M8.41161 31.7017C8.27581 31.7017 8.14136 31.6747 8.01607 31.6223C7.89079 31.5699 7.77715 31.4931 7.68179 31.3965C7.58643 31.2998 7.51125 31.1851 7.46059 31.0591C7.40993 30.9331 7.38481 30.7983 7.3867 30.6625V29.4953C7.36956 29.3496 7.38345 29.2019 7.42749 29.062C7.47153 28.922 7.54471 28.793 7.6422 28.6833C7.73969 28.5737 7.85928 28.4859 7.99312 28.4259C8.12696 28.3658 8.272 28.3347 8.41871 28.3347C8.56542 28.3347 8.71046 28.3658 8.8443 28.4259C8.97814 28.4859 9.09775 28.5737 9.19524 28.6833C9.29273 28.793 9.36589 28.922 9.40993 29.062C9.45397 29.2019 9.46789 29.3496 9.45074 29.4953V30.6625C9.45266 30.7995 9.42709 30.9355 9.37555 31.0624C9.324 31.1894 9.24753 31.3047 9.15065 31.4016C9.05377 31.4985 8.93847 31.5749 8.81153 31.6265C8.68459 31.678 8.5486 31.7036 8.41161 31.7017Z" fill="#38BCEA"/>
<path d="M11.9413 28.1715H10.7741C10.6284 28.1886 10.4807 28.1747 10.3408 28.1307C10.2008 28.0867 10.0718 28.0135 9.96214 27.916C9.85251 27.8185 9.76477 27.6989 9.70469 27.5651C9.6446 27.4312 9.61353 27.2862 9.61353 27.1395C9.61353 26.9928 9.6446 26.8477 9.70469 26.7139C9.76477 26.5801 9.85251 26.4604 9.96214 26.3629C10.0718 26.2654 10.2008 26.1923 10.3408 26.1483C10.4807 26.1042 10.6284 26.0903 10.7741 26.1075H11.9413C12.0871 26.0903 12.2347 26.1042 12.3747 26.1483C12.5146 26.1923 12.6437 26.2654 12.7533 26.3629C12.8629 26.4604 12.9507 26.5801 13.0107 26.7139C13.0708 26.8477 13.1019 26.9928 13.1019 27.1395C13.1019 27.2862 13.0708 27.4312 13.0107 27.5651C12.9507 27.6989 12.8629 27.8185 12.7533 27.916C12.6437 28.0135 12.5146 28.0867 12.3747 28.1307C12.2347 28.1747 12.0871 28.1886 11.9413 28.1715Z" fill="#38BCEA"/>
<path d="M6.06248 28.1715H4.89524C4.74953 28.1886 4.60185 28.1747 4.46191 28.1307C4.32196 28.0867 4.19293 28.0135 4.0833 27.916C3.97366 27.8185 3.88591 27.6989 3.82582 27.5651C3.76573 27.4312 3.73468 27.2862 3.73468 27.1395C3.73468 26.9928 3.76573 26.8477 3.82582 26.7139C3.88591 26.5801 3.97366 26.4604 4.0833 26.3629C4.19293 26.2654 4.32196 26.1923 4.46191 26.1483C4.60185 26.1042 4.74953 26.0903 4.89524 26.1075H6.06248C6.20819 26.0903 6.35586 26.1042 6.49581 26.1483C6.63575 26.1923 6.76479 26.2654 6.87442 26.3629C6.98405 26.4604 7.07181 26.5801 7.1319 26.7139C7.19198 26.8477 7.22304 26.9928 7.22304 27.1395C7.22304 27.2862 7.19198 27.4312 7.1319 27.5651C7.07181 27.6989 6.98405 27.8185 6.87442 27.916C6.76479 28.0135 6.63575 28.0867 6.49581 28.1307C6.35586 28.1747 6.20819 28.1886 6.06248 28.1715Z" fill="#38BCEA"/>
</svg>
